<?xml version="1.0" standalone="no"?>
<!DOCTYPE svg PUBLIC "-//W3C//DTD SVG 1.1//EN" "http://www.w3.org/Graphics/SVG/1.1/DTD/svg11.dtd" >
<svg xmlns="http://www.w3.org/2000/svg">
<metadata>
Created by FontForge 20120731 at Tue Jul  4 17:37:54 2017
 By admin
</metadata>
<defs>
<font id="iconfont" horiz-adv-x="1024" >
  <font-face 
    font-family="iconfont"
    font-weight="500"
    font-stretch="normal"
    units-per-em="1024"
    panose-1="2 0 6 3 0 0 0 0 0 0"
    ascent="896"
    descent="-128"
    x-height="792"
    bbox="0 -128 1855 897"
    underline-thickness="0"
    underline-position="0"
    unicode-range="U+0078-E641"
  />
<missing-glyph 
 />
    <glyph glyph-name=".notdef" 
 />
    <glyph glyph-name=".notdef" 
 />
    <glyph glyph-name=".null" horiz-adv-x="0" 
 />
    <glyph glyph-name="nonmarkingreturn" horiz-adv-x="341" 
 />
    <glyph glyph-name="x" unicode="x" horiz-adv-x="1001" 
d="M281 543q-27 -1 -53 -1h-83q-18 0 -36.5 -6t-32.5 -18.5t-23 -32t-9 -45.5v-76h912v41q0 16 -0.5 30t-0.5 18q0 13 -5 29t-17 29.5t-31.5 22.5t-49.5 9h-133v-97h-438v97zM955 310v-52q0 -23 0.5 -52t0.5 -58t-10.5 -47.5t-26 -30t-33 -16t-31.5 -4.5q-14 -1 -29.5 -0.5
t-29.5 0.5h-32l-45 128h-439l-44 -128h-29h-34q-20 0 -45 1q-25 0 -41 9.5t-25.5 23t-13.5 29.5t-4 30v167h911zM163 247q-12 0 -21 -8.5t-9 -21.5t9 -21.5t21 -8.5q13 0 22 8.5t9 21.5t-9 21.5t-22 8.5zM316 123q-8 -26 -14 -48q-5 -19 -10.5 -37t-7.5 -25t-3 -15t1 -14.5
t9.5 -10.5t21.5 -4h37h67h81h80h64h36q23 0 34 12t2 38q-5 13 -9.5 30.5t-9.5 34.5q-5 19 -11 39h-368zM336 498v228q0 11 2.5 23t10 21.5t20.5 15.5t34 6h188q31 0 51.5 -14.5t20.5 -52.5v-227h-327z" />
    <glyph glyph-name="xinwen" unicode="&#xe641;" 
d="M903 813h-615q-27 0 -46 -19t-19 -46v-732q0 -10 4 -22h-48q-9 0 -15.5 6.5t-6.5 15.5v627q0 9 6.5 15t15.5 6v43q-27 0 -46 -18.5t-19 -45.5v-627q0 -27 19 -46t46 -19l724 1q26 0 45 18.5t19 45.5v732q0 27 -19 46t-45 19zM924 16q0 -9 -6 -15t-15 -6h-615
q-9 0 -15.5 6t-6.5 15v732q0 9 6.5 15.5t15.5 6.5h615q9 0 15 -6.5t6 -15.5v-732zM809 283h-427q-6 0 -10.5 -4.5t-4.5 -10.5v-9q0 -7 4.5 -11.5t10.5 -4.5h427q6 0 10 4.5t4 11.5v9q0 6 -4 10.5t-10 4.5zM809 173h-427q-6 0 -10.5 -4.5t-4.5 -11.5v-9q0 -6 4.5 -10.5
t10.5 -4.5h427q6 0 10 4.5t4 10.5v9q0 7 -4 11.5t-10 4.5zM411 347h175q18 0 31 13t13 31v177q0 18 -13 31t-31 13h-175q-18 0 -31 -13t-13 -31v-177q0 -18 13 -31t31 -13zM411 568h175v-177h-175v177zM679 562h125q8 0 13.5 5.5t5.5 13.5t-5.5 13.5t-13.5 5.5h-125
q-8 0 -13.5 -5.5t-5.5 -13.5t5.5 -13.5t13.5 -5.5zM679 455h125q8 0 13.5 5.5t5.5 13.5t-5.5 13.5t-13.5 5.5h-125q-8 0 -13.5 -5.5t-5.5 -13.5t5.5 -13.5t13.5 -5.5zM679 349h125q8 0 13.5 5.5t5.5 13.5t-5.5 13.5t-13.5 5.5h-125q-8 0 -13.5 -5.5t-5.5 -13.5t5.5 -13.5
t13.5 -5.5z" />
    <glyph glyph-name="-fangdajing" unicode="&#xe602;" 
d="M422 53v0q-115 0 -212 56.5t-153.5 153.5t-56.5 211.5t56.5 211.5t153.5 153.5t211.5 56.5t211.5 -56.5t153.5 -153.5t56.5 -211.5t-56.5 -211.5t-153.5 -153.5t-211 -56.5zM422 813q-92 0 -170 -45.5t-123.5 -123.5t-45.5 -169.5t45 -169.5t123.5 -123.5t170.5 -45.5
v-42v42q92 0 170 45.5t123.5 123.5t45.5 169.5t-45.5 169.5t-123.5 123.5t-170 45.5zM983 -128q-17 0 -29 12l-293 292q-12 13 -12 30t12 29.5t29 12.5t30 -12l292 -293q12 -12 12 -29t-12 -29.5t-29 -12.5z" />
    <glyph glyph-name="-shanchu" unicode="&#xe603;" 
d="M512 896q-139 0 -257 -68.5t-186.5 -186.5t-68.5 -257t68.5 -257t186.5 -186.5t257 -68.5t257 68.5t186.5 186.5t68.5 257t-68.5 257t-186.5 186.5t-257 68.5zM721 230q11 -11 11 -27.5t-11 -27.5t-27.5 -11t-27.5 11l-154 154l-154 -154q-11 -11 -27.5 -11t-27.5 11.5
t-11 27.5t11 27l154 154l-154 154q-11 11 -11 27.5t11 27.5t27.5 11t27.5 -11l154 -154l154 154q11 11 27.5 11t27.5 -11t11 -27.5t-11 -27.5l-154 -154z" />
    <glyph glyph-name="-jiantouyou" unicode="&#xe604;" 
d="M282 -128q-21 0 -36.5 15.5t-15.5 37.5t15 37l422 422l-422 422q-16 15 -16 38q0 22 15.5 37.5t37.5 15.5t38 -17l459 -459q15 -15 15 -37t-15 -37l-459 -459q-16 -16 -37 -16h-1z" />
    <glyph glyph-name="-fangshier" unicode="&#xe605;" 
d="M512 -128q-104 0 -199 40.5t-163.5 109t-109 163.5t-40.5 199t40.5 199t109 163.5t163.5 109t199 40.5t199 -40.5t163.5 -109t109 -163.5t40.5 -199t-40.5 -199t-109 -163.5t-163.5 -109t-199 -40.5zM512 845q-94 0 -179 -36.5t-147 -98.5t-98.5 -147t-36.5 -179
t36.5 -179t98.5 -147t147 -98.5t179 -36.5t179 36.5t147 98.5t98.5 147t36.5 179t-36.5 179t-98.5 147t-147 98.5t-179 36.5zM638 608q47 -42 47 -110q0 -67 -51 -123q-30 -31 -108 -84q-99 -66 -114 -119h274v-54h-348q0 73 52 130q34 37 113 92q62 45 82 65q40 44 40 94
q0 47 -28.5 73t-79.5 26q-55 0 -82 -36q-32 -36 -32 -104h-60q0 86 49 139q48 53 127 53q73 0 119 -42z" />
    <glyph glyph-name="-jiantouxia" unicode="&#xe606;" horiz-adv-x="1857" 
d="M0 799q0 40 28 68t68 28q16 0 36 -8.5t32 -19.5l763 -763l763 763q12 12 32 20.5t37 8.5q40 0 68 -28t28 -68q0 -17 -8.5 -37t-20.5 -32l-831 -831q-12 -12 -31.5 -20t-36 -8t-36.5 8t-32 20l-831 831q-12 12 -20 31.5t-8 36.5v0z" />
    <glyph glyph-name="-fangshiyi" unicode="&#xe607;" 
d="M512 -128q-104 0 -199 40.5t-163.5 109t-109 163.5t-40.5 199t40.5 199t109 163.5t163.5 109t199 40.5t199 -40.5t163.5 -109t109 -163.5t40.5 -199t-40.5 -199t-109 -163.5t-163.5 -109t-199 -40.5zM512 845q-94 0 -179 -36.5t-147 -98.5t-98.5 -147t-36.5 -179
t36.5 -179t98.5 -147t147 -98.5t179 -36.5t179 36.5t147 98.5t98.5 147t36.5 179t-36.5 179t-98.5 147t-147 98.5t-179 36.5zM551 644v-520h-60v447q-48 -49 -123 -71v60q34 9 73 32q35 21 63 52h47z" />
    <glyph glyph-name="-zhengyan" unicode="&#xe608;" horiz-adv-x="1686" 
d="M843 -117q-75 0 -160.5 26t-159.5 63.5t-152.5 90t-134 96.5t-110 92.5t-74.5 68.5t-32.5 33t-12.5 31q0 17 11 30t29.5 32.5t69 68t103.5 93t130 97t152 90.5t166 64t175 26q75 0 160.5 -26t160 -63.5t153 -90t134 -97t109.5 -92.5t74.5 -68t32.5 -32.5t12.5 -30
t-11 -31t-29.5 -33t-68.5 -68t-103.5 -93t-130 -97t-152.5 -90.5t-166 -64t-175.5 -26zM115 385q42 -40 89.5 -81.5t131 -104.5t162 -110t173 -81t172.5 -34q89 0 187.5 33.5t176.5 80t158 109t124 104t83 81.5q-42 41 -89.5 82.5t-131 104.5t-162 110t-173 81t-173.5 34
q-88 0 -186.5 -34t-176.5 -80t-158 -108.5t-124.5 -104t-82.5 -82.5zM843 384zM601 384v0q0 -100 71 -171t171.5 -71t171.5 71t71 171v0q0 100 -71 171t-171.5 71t-171.5 -71t-71 -171v0z" />
    <glyph glyph-name="-gongshangbaoxian" unicode="&#xe609;" 
d="M345 350h36v-68h-36v68zM512 896q-139 0 -257 -68.5t-186.5 -186.5t-68.5 -257t68.5 -257t186.5 -186.5t257 -68.5t257 68.5t186.5 186.5t68.5 257t-68.5 257t-186.5 186.5t-257 68.5zM510 668q39 0 66.5 -26t27.5 -63.5t-27.5 -64t-66.5 -26.5t-66.5 26.5t-27.5 64
t27.5 63.5t66.5 26zM750 100h-71v227q0 10 -7 16.5t-17 6.5t-17 -6.5t-7 -16.5v-227h-286v79h-12q-24 0 -41.5 17t-17.5 40v182q4 20 21 33t38 13h210l-178 -281q5 -1 14 -1.5t34 2.5t48 11t52 28t51 49t39.5 78.5t22.5 113.5h65q24 0 41.5 -17t17.5 -40v-307v0z" />
    <glyph glyph-name="-yiliaobaoxian" unicode="&#xe60a;" 
d="M512 896q-139 0 -257 -68.5t-186.5 -186.5t-68.5 -257t68.5 -257t186.5 -186.5t257 -68.5t257 68.5t186.5 186.5t68.5 257t-68.5 257t-186.5 186.5t-257 68.5zM387 552l109 110q7 6 16 6t16 -6l109 -110q7 -6 7 -15.5t-7 -15.5l-91 -92v79q0 4 -2.5 6.5t-6.5 2.5v0h-49
q-4 0 -6.5 -2.5t-2.5 -6.5v-80l-92 93q-7 6 -7 15.5t7 15.5zM344 259l-110 109q-6 7 -6 16t6 16l110 109q6 7 15.5 7t15.5 -7l93 -92h-80q-4 0 -6.5 -2.5t-2.5 -6.5v0v-49q0 -4 2.5 -6.5t6.5 -2.5v0h79l-92 -91q-6 -7 -15.5 -7t-15.5 7zM637 216l-109 -110q-7 -6 -16 -6
t-16 6l-109 110q-7 6 -7 15.5t7 15.5l92 93v-81q0 -4 2.5 -6.5t6.5 -2.5h49q4 0 6.5 2.5t2.5 6.5v0v80l91 -92q7 -6 7 -15.5t-7 -15.5zM790 368l-110 -109q-6 -7 -15.5 -7t-15.5 7l-92 91h80q4 0 6.5 2.5t2.5 6.5v0v49v0q0 9 -9 9v0h-81l93 92q6 7 15.5 7t15.5 -7l110 -109
q6 -7 6 -16t-6 -16z" />
    <glyph glyph-name="-yanglaocesuan" unicode="&#xe60b;" 
d="M708 609h-392q-8 0 -13.5 -6t-5.5 -15v-408q0 -9 5.5 -15t13.5 -6h392q8 0 13.5 6t5.5 15v408q0 9 -5.5 15t-13.5 6zM480 255q5 -5 5 -12t-5 -12t-12 -5q-8 0 -13 5l-30 32l-30 -32q-5 -5 -13 -5q-6 0 -11 5q-6 5 -6 12t5 12l31 32l-31 33q-5 5 -5 12t5 12t12 5
q8 0 13 -5l30 -32l30 32q5 5 13 5q7 0 12 -5t5 -12t-5 -12l-31 -33zM485 447h-43v-46q0 -7 -5 -12t-12 -5t-12 5t-5 12v46h-43q-7 0 -12 5t-5 12t5 12t12 5h43v46q0 7 5 12t12 5t12 -5t5 -12v-46h43v0q7 0 12 -5t5 -12t-5 -12t-12 -5zM659 231h-120q-7 0 -12 5t-5 12.5
t5 12.5t12 5h120q7 0 12 -5t5 -12.5t-5 -12.5t-12 -5zM659 309h-120q-7 0 -12 5t-5 12t5 12t12 5h120q7 0 12 -5t5 -12t-5 -12t-12 -5zM659 447h-120q-7 0 -12 5t-5 12t5 12t12 5h120q7 0 12 -5t5 -12t-5 -12t-12 -5zM512 896q-139 0 -257 -68.5t-186.5 -186.5t-68.5 -257
t68.5 -257t186.5 -186.5t257 -68.5t257 68.5t186.5 186.5t68.5 257t-68.5 257t-186.5 186.5t-257 68.5zM778 180q0 -30 -20.5 -51t-49.5 -21h-392q-29 0 -49.5 21t-20.5 51v408q0 30 20.5 51t49.5 21h392q29 0 49.5 -21t20.5 -51v-408z" />
    <glyph glyph-name="-shiyebaoxian" unicode="&#xe60c;" 
d="M512 896q-139 0 -257 -68.5t-186.5 -186.5t-68.5 -257t68.5 -257t186.5 -186.5t257 -68.5t257 68.5t186.5 186.5t68.5 257t-68.5 257t-186.5 186.5t-257 68.5zM529 264v-101q0 -22 -12.5 -38.5t-33.5 -22.5q-8 -2 -17 -2q-25 0 -43.5 17.5t-19.5 42.5q0 18 16 20
q8 0 13 -4.5t5 -12.5q1 -13 12 -22.5t24 -5.5q9 2 15 9t7 17v24v181q0 17 13 20q8 2 14.5 -3t6.5 -14v-5v-100zM631 390q-23 12 -53 12h-61h-76q-28 0 -53 -15q-1 -1 -2 -1h-1q3 70 35 124t92 111q59 -55 91 -110t36 -126q-1 0 -4 2t-4 3zM654 388q-1 3 -1 14v14
q-4 37 -21 76.5t-35 60.5q-5 5 -21 25t-27 31.5t-24 22.5q-5 5 -13 5t-14 -5q-58 -55 -83 -95q-38 -63 -44 -124v-12.5v-12.5q-23 15 -63 14t-64 -23l-1 1q5 37 6 39q17 74 78 124q55 46 139 79q15 6 31 12q4 2 4 6q-1 5 0 15q0 13 11 13q11 1 11 -13q1 -10 0 -14q0 -6 5 -7
q50 -18 102 -46q68 -35 108 -88q34 -43 41 -101q0 -1 2 -21q-23 23 -62 26.5t-65 -16.5z" />
    <glyph glyph-name="-shengyubaoxian" unicode="&#xe60d;" 
d="M601 637l-4 -1q-10 -5 -14.5 -16t-5.5 -20v-8q3 -27 24 -73.5t41 -80.5l19 -33h-1q-9 0 -51 -20t-81 -40l-38 -20q-16 12 -23 12v0h-2q-1 -1 -2 -1v0q-1 0 -6 0.5t-8 0.5q-24 0 -28 -10q-2 -4 0 -8l3.5 -7t6 -6.5t7 -5t6 -3.5l3.5 -2q4 -3 18 -3l37 3q8 2 21 6.5t46 16
t59.5 22t50.5 22.5t29 19t-25 102.5t-46 123.5q-17 30 -36 30zM512 896q-139 0 -257 -68.5t-186.5 -186.5t-68.5 -257t68.5 -257t186.5 -186.5t257 -68.5t257 68.5t186.5 186.5t68.5 257t-68.5 257t-186.5 186.5t-257 68.5zM731 366q-10 -15 -52 -35q13 -34 14 -71
q0 -31 -15 -68.5t-26 -53.5t-20 -28q-8 -10 -21 -10h-199v0q-9 0 -16 5q-18 13 -35.5 31.5t-34.5 46t-27.5 57t-10.5 67t14 73.5q26 67 100 103q-7 8 -11 17q-18 38 8 71q32 40 125 94q6 4 15 3l54 -2q4 0 8 -2v0q35 0 60 -43q17 -31 48 -129q16 -51 22 -78.5t5 -34.5
t-5 -13z" />
    <glyph glyph-name="-xuanzexianzhong-hui" unicode="&#xe60e;" 
d="M512 896q-139 0 -257 -68.5t-186.5 -186.5t-68.5 -257t68.5 -257t186.5 -186.5t257 -68.5t257 68.5t186.5 186.5t68.5 257t-68.5 257t-186.5 186.5t-257 68.5zM708 317q-16 -39 -41.5 -73t-51.5 -54.5t-49.5 -35t-38.5 -20.5l-15 -6q-39 13 -74 37t-56 47.5t-37 46.5
t-22.5 36t-6.5 14v244q44 2 93 23.5t76 42.5l27 21q22 -28 71 -49.5t87 -29.5l38 -8v-236z" />
    <glyph glyph-name="-yanglaobaoxian" unicode="&#xe60f;" 
d="M686 641v0v0zM512 896q-139 0 -257 -68.5t-186.5 -186.5t-68.5 -257t68.5 -257t186.5 -186.5t257 -68.5t257 68.5t186.5 186.5t68.5 257t-68.5 257t-186.5 186.5t-257 68.5zM737 100h-47v136q0 7 -5.5 12.5t-12.5 5.5t-12.5 -5.5t-5.5 -12.5v-6v0q-2 -10 -10.5 -17
t-18.5 -7h-2q-10 1 -18.5 8.5t-9.5 18.5l-8 6l-15 16v-155h-308q-2 1 -1 19t1 21q0 90 46.5 183t118.5 136q7 5 15 8h0.5t0.5 1l1 -1q23 7 40 -10l160 -159q0 -1 0.5 -1.5l0.5 -0.5q13 5 26 5q27 0 46 -19t18 -46v-136zM748 570l-44 -12q6 -16 6 -34q0 -43 -30.5 -73
t-73.5 -30v0q-35 0 -65 24.5t-37 59.5l-38 -10q-2 -1 -4 -1q-5 0 -9 3q-6 3 -8 10t8.5 21.5t17.5 16.5l6 1l10 49q5 19 11 29q12 18 78.5 34t79.5 9q13 -8 30 -26l-4 4l4 -4l28 -31l5 1q8 2 24 -5t18 -14v0q2 -7 -2 -13.5t-11 -8.5z" />
    <glyph glyph-name="-xuanzeyuefen-hui" unicode="&#xe610;" 
d="M318 474h389v-45h-389v45zM512 896q-139 0 -257 -68.5t-186.5 -186.5t-68.5 -257t68.5 -257t186.5 -186.5t257 -68.5t257 68.5t186.5 186.5t68.5 257t-68.5 257t-186.5 186.5t-257 68.5zM750 205q0 -25 -17.5 -42.5t-41.5 -17.5h-358q-24 0 -41.5 17.5t-17.5 42.5v299
q0 24 17.5 41.5t41.5 17.5h30v38q0 9 6.5 15.5t15.5 6.5h1q9 0 15.5 -6.5t6.5 -15.5v-38h209v38q0 9 6.5 15.5t15.5 6.5h1q9 0 15.5 -6.5t6.5 -15.5v-38h29q24 0 41.5 -17.5t17.5 -41.5v-299v0z" />
    <glyph glyph-name="-xuanzeyuefen-lan" unicode="&#xe611;" 
d="M318 474h389v-45h-389v45zM512 896q-139 0 -257 -68.5t-186.5 -186.5t-68.5 -257t68.5 -257t186.5 -186.5t257 -68.5t257 68.5t186.5 186.5t68.5 257t-68.5 257t-186.5 186.5t-257 68.5zM750 205q0 -25 -17.5 -42.5t-41.5 -17.5h-358q-24 0 -41.5 17.5t-17.5 42.5v299
q0 24 17.5 41.5t41.5 17.5h30v38q0 9 6.5 15.5t15.5 6.5h1q9 0 15.5 -6.5t6.5 -15.5v-38h209v38q0 9 6.5 15.5t15.5 6.5h1q9 0 15.5 -6.5t6.5 -15.5v-38h29q24 0 41.5 -17.5t17.5 -41.5v-299v0z" />
    <glyph glyph-name="-xuanzexianzhong-lan" unicode="&#xe612;" 
d="M512 896q-139 0 -257 -68.5t-186.5 -186.5t-68.5 -257t68.5 -257t186.5 -186.5t257 -68.5t257 68.5t186.5 186.5t68.5 257t-68.5 257t-186.5 186.5t-257 68.5zM708 317q-16 -39 -41.5 -73t-51.5 -54.5t-49.5 -35t-38.5 -20.5l-15 -6q-39 13 -74 37t-56 47.5t-37 46.5
t-22.5 36t-6.5 14v244q44 2 93 23.5t76 42.5l27 21q22 -28 71 -49.5t87 -29.5l38 -8v-236z" />
    <glyph glyph-name="-jiaofeijieguo-lan" unicode="&#xe613;" 
d="M512 896q-139 0 -257 -68.5t-186.5 -186.5t-68.5 -257t68.5 -257t186.5 -186.5t257 -68.5t257 68.5t186.5 186.5t68.5 257t-68.5 257t-186.5 186.5t-257 68.5zM768 444q-54 -12 -150 -122t-141 -194q-93 118 -221 187l84 81l129 -130q5 11 15.5 29.5t43 70.5t66 97.5
t81.5 96t93 80.5q-13 -43 -12 -98t12 -98z" />
    <glyph glyph-name="-jiaofeichenggong" unicode="&#xe614;" 
d="M512 896q-139 0 -257 -68.5t-186.5 -186.5t-68.5 -257t68.5 -257t186.5 -186.5t257 -68.5t257 68.5t186.5 186.5t68.5 257t-68.5 257t-186.5 186.5t-257 68.5zM740 437q-48 -11 -133.5 -108.5t-125.5 -172.5q-83 105 -197 167l76 71l113 -115q6 10 15 26.5t38 63
t58.5 86.5t72.5 85t83 72q-12 -39 -11 -87.5t11 -87.5z" />
    <glyph glyph-name="-jiaofeijieguo-hui" unicode="&#xe615;" 
d="M512 896q-139 0 -257 -68.5t-186.5 -186.5t-68.5 -257t68.5 -257t186.5 -186.5t257 -68.5t257 68.5t186.5 186.5t68.5 257t-68.5 257t-186.5 186.5t-257 68.5zM768 444q-54 -12 -150 -122t-141 -194q-93 118 -221 187l84 81l129 -130q5 11 15.5 29.5t43 70.5t66 97.5
t81.5 96t93 80.5q-13 -43 -12 -98t12 -98z" />
    <glyph glyph-name="-zaixianzhifu-hui" unicode="&#xe616;" 
d="M512 896q-139 0 -257 -68.5t-186.5 -186.5t-68.5 -257t68.5 -257t186.5 -186.5t257 -68.5t257 68.5t186.5 186.5t68.5 257t-68.5 257t-186.5 186.5t-257 68.5zM493 574q26 13 47 24t36 19q19 11 35 10t26 -6q12 -6 22 -16l32 -61h-256zM768 393h-128q-21 0 -36 -14.5
t-15 -35.5q0 -15 6 -26q4 -9 14.5 -17t30.5 -8h128v-100q0 -11 -4 -20q-7 -19 -26 -27q-9 -4 -20 -4h-409q-11 0 -20.5 4t-17 11t-11.5 16t-4 19v1v276q0 21 15 35.5t36 14.5h410q21 0 36 -14.5t15 -35.5v-75zM665 342.5q0 -10.5 -7 -18t-18 -7.5t-18 7.5t-7 18t7 18t17 7.5
h1q11 0 18 -7.5t7 -18z" />
    <glyph glyph-name="-yonghuming" unicode="&#xe617;" 
d="M830 543q0 86 -43 159t-116 115t-159 42t-159 -42t-115.5 -115t-42.5 -159q0 -87 44 -160.5t118 -114.5q-90 -36 -164.5 -129t-90.5 -188v-6q0 -15 10.5 -25.5t25.5 -10.5q13 0 23.5 9t13.5 21q20 124 115.5 204.5t221.5 80.5q8 0 16 4q126 6 214 97.5t88 217.5z
M268 543.5q0 100.5 71.5 171.5t172.5 71t172.5 -71t71.5 -171.5t-71.5 -172t-172.5 -71.5t-172.5 71.5t-71.5 172zM922 -49q-11 67 -57.5 144t-100.5 118q-10 7 -22 7q-15 0 -26 -10.5t-11 -25.5q0 -19 15 -29q45 -34 82.5 -97.5t46.5 -118.5q3 -12 13.5 -20.5t22.5 -8.5
q15 0 26 11t11 26v4z" />
    <glyph glyph-name="-zaixianzhifu-lan" unicode="&#xe618;" 
d="M512 896q-139 0 -257 -68.5t-186.5 -186.5t-68.5 -257t68.5 -257t186.5 -186.5t257 -68.5t257 68.5t186.5 186.5t68.5 257t-68.5 257t-186.5 186.5t-257 68.5zM493 574q26 13 47 24t36 19q19 11 35 10t26 -6q12 -6 22 -16l32 -61h-256zM768 393h-128q-21 0 -36 -14.5
t-15 -35.5q0 -15 6 -26q4 -9 14.5 -17t30.5 -8h128v-100q0 -11 -4 -20q-7 -19 -26 -27q-9 -4 -20 -4h-409q-11 0 -20.5 4t-17 11t-11.5 16t-4 19v1v276q0 21 15 35.5t36 14.5h410q21 0 36 -14.5t15 -35.5v-75zM665 342.5q0 -10.5 -7 -18t-18 -7.5t-18 7.5t-7 18t7 18t17 7.5
h1q11 0 18 -7.5t7 -18z" />
    <glyph glyph-name="-shanchu1" unicode="&#xe619;" 
d="M512 896q-139 0 -257 -68.5t-186.5 -186.5t-68.5 -257t68.5 -257t186.5 -186.5t257 -68.5t257 68.5t186.5 186.5t68.5 257t-68.5 257t-186.5 186.5t-257 68.5zM700 251q12 -11 12 -28q0 -16 -11 -27.5t-27 -11.5q-17 0 -28 12l-134 134l-134 -134q-11 -10 -26 -10
q-16 0 -27.5 11t-11.5 27t11 27l133 133l-133 133q-12 11 -12 28q0 16 11 27.5t27 11.5q17 0 28 -12l134 -133l134 133q11 12 28 12q16 0 27 -11.5t11 -27.5q0 -17 -12 -28l-133 -133z" />
    <glyph glyph-name="-mima" unicode="&#xe61a;" 
d="M781 458h-491v148q0 88 63 151t151.5 63t151 -63t62.5 -151q1 -13 10.5 -22.5t23 -9.5t23 9.5t10.5 22.5q0 116 -82.5 198.5t-198.5 82.5t-198 -82.5t-82 -198.5v-149q-41 -7 -70.5 -41.5t-29.5 -75.5v-340q0 -49 35 -84t84 -35h538q49 0 84 35t35 84v340q0 49 -35 83.5
t-84 34.5zM781 -52h-538q-21 0 -36.5 15.5t-15.5 36.5v340q0 21 15 36t37 15h538q22 0 37 -15t15 -36v-340q0 -21 -15.5 -36.5t-36.5 -15.5z" />
    <glyph glyph-name="-dengluLOGO" unicode="&#xe61b;" 
d="M512 384zM0 384q0 -139 68.5 -257t186.5 -186.5t257 -68.5t257 68.5t186.5 186.5t68.5 257t-68.5 257t-186.5 186.5t-257 68.5t-257 -68.5t-186.5 -186.5t-68.5 -257zM405 277q15 -6 49 -14t52.5 -17.5t21.5 -27.5q2 -9 -6 -21.5t-20 -25t-24.5 -23t-21.5 -17.5t-9 -6
q8 0 21.5 2.5t50.5 13t70.5 25.5t72 44t63.5 65q77 114 33 266l-14 41v0q-1 -11 -4 -28.5t-16.5 -52t-33.5 -45.5q-10 -5 -23 -5t-26 3.5t-29 10.5t-29 14t-29 15.5t-26 12.5q-45 21 -86.5 25t-61.5 -2l-20 -6q5 -1 13.5 -3t31.5 -10t43.5 -17t44.5 -24.5t40 -32.5
t23.5 -40.5t1.5 -49.5q-6 -23 -33 -33t-61 -8.5t-67 6.5t-56 11l-23 6q34 -30 87 -52zM473 236q-46 10 -82.5 27.5t-50.5 29.5l-14 12q-38 6 -67 14t-44 15.5t-25 14.5t-12 12l-3 4q33 -102 132 -133l36 -7q-105 -15 -182 120q-20 33 -30 62q0 -5 -1 -13.5t0 -34t6.5 -49
t20.5 -53.5t38 -52q77 -75 197 -84l16 -1l49 31q94 68 16 85zM533 396q-31 1 -55 -6t-36.5 -17t-20.5 -20t-10 -17l-2 -7q12 -2 29 -3t50 1t42 12q6 8 7 22t-1 24zM860 271q5 27 0 44.5t-17.5 27t-25.5 14t-22 5.5l-10 1q0 -4 -1 -10.5t-8 -27t-19 -40.5t-38 -48t-61 -53
q-99 -70 -233 -82h-11q1 -3 2.5 -6.5t8.5 -14t17.5 -18.5t31.5 -15.5t47 -9.5q25 -2 48 3t38.5 13t27 17t17 14.5t5.5 6.5q2 -1 5.5 -3t14.5 -5.5t22 -5.5t25 -1.5t25 5.5q21 9 33.5 24.5t14.5 26.5l1 11q1 1 7 0t17 1.5t22 6.5t23.5 15.5t19.5 27.5q11 27 5 44t-19 25z
M518 545q40 -11 62 -24q14 -8 31 -10.5t25 -1.5v1q20 2 33.5 16.5t13.5 34.5q0 21 -15 36t-37 15h-4v0h-1v0q-11 0 -27.5 -10t-24.5 -19q-4 -3 -15 -6t-21 -5l-9 -1q16 -8 37 -8q-3 -4 -15 -8.5t-22 -7.5zM441 551l9 57l58 9l-58 9l-9 58l-9 -58l-57 -9l57 -9zM591 637l7 40
l40 7l-41 6l-6 40l-6 -40l-41 -6l41 -6zM712 604l6 38l38 6l-38 6l-6 38l-6 -38l-38 -6l38 -6z" />
    <glyph glyph-name="-zanweiquhao" unicode="&#xe61c;" horiz-adv-x="1208" 
d="M229 523q-28 -76 -28 -158q0 -120 56 -222.5t152 -166.5h519q49 32 87 75l16 -16q16 -16 39.5 -16t40 16t16.5 39.5t-17 39.5l-16 17l-13 13l-44 44q-7 7 -7 16.5t7 16.5t17 7t17 -7l32 -32l24 -24l14 -14q11 -11 27.5 -11t28 11.5t11.5 28t-12 27.5l-68 68q9 45 9 90v0
q0 95 -37 181.5t-100 149.5t-149.5 100t-181.5 37q-101 0 -192 -42l-54 54q-10 11 -20.5 0.5t-0.5 -21.5l9 -8l38 -38l1 -1q9 -9 9 -23t-9.5 -23.5t-23 -9.5t-23.5 10l-11 11l-27 27l-25 25q-11 11 -26 11t-26 -11t-11 -26.5t11 -25.5l48 -48l5 -6q13 -12 13 -30t-13 -31
q-12 -12 -29.5 -12.5t-30.5 11.5l-41 42q-16 16 -39 16t-39 -16t-16 -39t16 -39zM211 814l-22 22q-10 10 -10 24.5t10 24.5t24.5 10t24.5 -10l22 -22q10 -10 10 -24.5t-10 -24.5t-24.5 -10t-24.5 10zM997 -29h-715q-5 0 -5 4.5t5 4.5h715q5 0 5 -4.5t-5 -4.5zM1072 -29h-43
q-4 0 -4 4.5t4 4.5h43q4 0 4 -4.5t-4 -4.5zM584 -71h-152q-4 0 -4 4t4 4h152q4 0 4 -4t-4 -4zM622 -71h-9q-4 0 -4 4t4 4h9q4 0 4 -4t-4 -4zM810 -71h-160q-4 0 -4 4t4 4h160q4 0 4 -4t-4 -4zM924 -127h-369q-4 0 -4 4t4 4h369q4 0 4 -4t-4 -4zM446 564v0q-14 0 -24 10
t-10 24t10 24t24 10v0q14 0 24 -10t10 -24v0q0 -14 -10 -24t-24 -10v0zM446 624v0q-11 0 -18.5 -7.5t-7.5 -18.5t7.5 -18.5t18.5 -7.5v0v0q11 0 18.5 7.5t7.5 18.5t-7.5 18.5t-18.5 7.5v0zM76 534v0q-11 0 -18.5 8t-7.5 19t7.5 18.5t18.5 7.5t19 -7.5t8 -18.5t-8 -19t-19 -8
v0zM76 579q-7 0 -12.5 -5.5t-5.5 -13t5.5 -12.5t13 -5t12.5 5t5 12.5t-5 13t-13 5.5v0zM1150 535v0q-11 0 -18.5 7.5t-7.5 18t7.5 18.5t18 8t18 -8t7.5 -18.5t-7.5 -18t-17.5 -7.5v0zM1150 578v0q-8 0 -13 -5t-5 -12v0q0 -7 5 -12.5t12.5 -5.5t12.5 5.5t5 12.5v0q0 7 -5 12
t-12 5v0zM673 641h-32q-4 0 -4 4t4 4h32q5 0 5 -4t-5 -4zM657 624v0q-4 0 -4 5v32q0 4 4 4t4 -4v-32q0 -5 -4 -5zM37 387h-12v12q0 5 -4 5t-4 -5v-12h-12q-5 0 -5 -4t5 -4h12v-12q0 -5 4 -5t4 5v12h12v0q4 0 4 4t-4 4zM828 -7v1v-1zM828 -10v0q-3 0 -3 3q0 2 1 3t2 1
q4 0 4 -3q0 -2 -1 -3t-3 -1v0zM929 124v0l13 31l7 6q5 1 8 0t5 -2l2 -2q2 -1 7 -6t10.5 -8.5t13.5 -4.5q20 -4 34 10v5l-8 2q-17 4 -27 23l-17 24q-10 10 -20 9q-3 0 -5.5 -2t-3.5 -4l-1 -1l-20 -50l-8 -19zM931 117l-5 5l3 2l-3 1l13 32q4 6 9 7q10 3 18 -4q2 -2 7 -6
q11 -11 23 -13q16 -3 30 9q-3 0 -6 1q-19 5 -29 25q-5 11 -16 24q-9 8 -18 8q-5 -1 -6 -5v-1l-21 -50l-8 -18l-7 3l8 18l21 50q3 9 13 10q11 1 23 -10v-1q12 -13 17 -24q9 -18 25 -22q5 -1 7 -1q4 -1 5.5 -4t-2.5 -7q-16 -16 -38 -12q-13 3 -26 15q-4 4 -6 5l-1 1
q-4 4 -11 2v0q-2 0 -4 -4zM363 487h68q4 16 20 16t21 -16h49q5 16 20.5 16t20.5 -16h52q4 16 20 16t20 -16h50q4 16 20 16t20 -16h70q17 0 29 -12t12 -29v-429q0 -17 -12 -29t-29 -12h-451q-17 0 -29 12t-12 29v429q0 17 12 29t29 12zM814 -28h-451q-19 0 -32 13t-13 32v429
q0 19 13 32t32 13h66q6 15 22.5 15t22.5 -15h45q6 15 22.5 15t22.5 -15h47q7 15 23.5 15t22.5 -15h44q6 15 22.5 15t23.5 -15h67q18 0 31 -13t13 -32v-429q0 -19 -13 -32t-31 -13zM363 484q-16 0 -26.5 -11t-10.5 -27v-429q0 -16 10.5 -27t26.5 -11h451q15 0 26 11t11 27
v429q0 16 -11 27t-26 11h-73l-1 2q-3 13 -16 13t-17 -13l-1 -2h-54l-1 2q-4 13 -17 13t-17 -13v-2h-58l-1 2q-3 13 -16.5 13t-16.5 -13l-1 -2h-55l-1 2q-3 13 -16.5 13t-16.5 -13l-1 -2h-71zM703 475q0 -9 6 -15.5t14.5 -6.5t15 6.5t6.5 15.5v30q0 8 -6.5 14.5t-15 6.5
t-14.5 -6.5t-6 -14.5v-30zM724 450q-10 0 -17.5 7t-7.5 18v30q0 10 7.5 17t17.5 7t17 -7t7 -17v-30q0 -11 -7 -18t-17 -7zM724 522q-7 0 -12.5 -5t-5.5 -12v-30q0 -8 5.5 -13t12.5 -5t12 5t5 13v30q0 7 -5 12t-12 5zM613 475q0 -9 6 -15.5t15 -6.5t15 6.5t6 15.5v30
q0 8 -6 14.5t-15 6.5t-15 -6.5t-6 -14.5v-30zM634 450q-10 0 -17.5 7t-7.5 18v30q0 10 7.5 17t17.5 7t17.5 -7t7.5 -17v-30q0 -11 -7.5 -18t-17.5 -7zM634 522q-7 0 -12 -5t-5 -12v-30q0 -8 5 -13t12 -5t12 5t5 13v30q0 7 -5 12t-12 5zM521 475q0 -9 6 -15.5t14.5 -6.5
t15 6.5t6.5 15.5v30q0 8 -6.5 14.5t-15 6.5t-14.5 -6.5t-6 -14.5v-30zM541.5 450q-10.5 0 -17.5 7t-7 18v30q0 10 7 17t17.5 7t17.5 -7t7 -17v-30q0 -11 -7 -18t-17.5 -7zM541.5 522q-7.5 0 -12.5 -5t-5 -12v-30q0 -8 5 -13t12.5 -5t12.5 5t5 13v30q0 7 -5 12t-12.5 5z
M430 475q0 -9 6.5 -15.5t15 -6.5t14.5 6.5t6 15.5v30q0 8 -6 14.5t-14.5 6.5t-15 -6.5t-6.5 -14.5v-30zM451.5 450q-10.5 0 -17.5 7t-7 18v30q0 10 7 17t17.5 7t17.5 -7t7 -17v-30q0 -11 -7 -18t-17.5 -7zM451.5 522q-7.5 0 -12.5 -5t-5 -12v-30q0 -8 5 -13t12.5 -5t12.5 5
t5 13v30q0 7 -5 12t-12.5 5zM855 428v18q0 17 -12 29t-29 12h-37zM858 428h-7v18q0 16 -11 27t-26 11h-37v7h37q18 0 31 -13t13 -32v-18zM396 487h-33q-17 0 -29 -12t-12 -29v-429q0 -17 12 -29t29 -12h451q17 0 29 12t12 29v380h-496zM814 -28h-451q-19 0 -32 13t-13 32
v429q0 19 13 32t32 13h33v-7h-33q-16 0 -26.5 -11t-10.5 -27v-429q0 -16 10.5 -27t26.5 -11h451q15 0 26 11t11 27v376h-492v8h499v-384q0 -19 -13 -32t-31 -13zM414 10l-55 60v286h457v-315q0 -13 -9 -22t-22 -9h-334v46q0 12 -9 21t-21 9h-30zM785 6h-337v50q0 11 -8 19
t-19 8h-30v7h30q14 0 24 -10t10 -24v-43h330q11 0 19 8t8 20v311h-449v-280l54 -60l-6 -5l-56 62v291h464v-319q0 -15 -10 -25t-24 -10zM449 194.5q0 -11.5 8 -20t19.5 -8.5t19.5 8.5t8 20t-8 19.5t-19.5 8t-19.5 -8t-8 -19.5zM476 163q-13 0 -22 9t-9 22t9 22t22 9t22 -9
t9 -22t-9 -22t-22 -9zM476 218q-10 0 -17 -7t-7 -17t7 -17t17 -7t17 7t7 17t-7 17t-17 7zM671 194.5q0 -11.5 8 -20t19.5 -8.5t19.5 8.5t8 20t-8 19.5t-19.5 8t-19.5 -8t-8 -19.5zM698.5 163q-12.5 0 -22 9t-9.5 22t9.5 22t22 9t22 -9t9.5 -22t-9.5 -22t-22 -9zM698.5 218
q-9.5 0 -16.5 -7t-7 -17t7 -17t16.5 -7t16.5 7t7 17t-7 17t-16.5 7zM560 194v0q0 -11 8 -19.5t19.5 -8.5t19.5 8.5t8 19.5v0v0q0 12 -8 20t-19.5 8t-19.5 -8t-8 -20v0zM587.5 163q-12.5 0 -22 9t-9.5 22t9.5 22t22 9t21.5 -9t9 -22t-9 -22t-21.5 -9zM587.5 218
q-9.5 0 -16.5 -7t-7 -17t7 -17t16.5 -7t16.5 7t7 17t-7 17t-16.5 7zM945 -20q14 28 14 60v0q0 56 -39.5 96t-96 40t-96 -40t-39.5 -96v0q0 -32 14 -60h243zM702 -24q-2 0 -3 2q-15 29 -15 62q0 58 41 98.5t98.5 40.5t98.5 -40.5t41 -98.5q0 -33 -15 -62q-1 -2 -3 -2
q-4 0 -4 4v1q14 28 14 59q0 55 -38.5 93.5t-93 38.5t-93.5 -38.5t-39 -93.5q0 -31 14 -59l1 -1q0 -4 -4 -4v0zM751 62l19 18zM751 58q-3 0 -3 4q0 1 1 2l19 19q1 1 2 1q4 0 4 -4q0 -1 -1 -2l-19 -19q-1 -1 -2 -1h-1zM770 62l-19 18zM770 58q-1 0 -2 1l-19 19q-1 1 -1 2
q0 4 3 4q2 0 3 -1l19 -19q1 -1 1 -2q0 -4 -4 -4v0zM877 62l18 18zM877 58q-4 0 -4 4q0 1 1 2l19 19q1 1 2 1q4 0 4 -4q0 -1 -1 -2l-19 -19q-1 -1 -2 -1v0zM895 62l-18 18zM895 58q-1 0 -2 1l-19 19q-1 1 -1 2q0 4 4 4q1 0 2 -1l19 -19q1 -1 1 -2q0 -4 -4 -4v0zM890 -2
q-7 8 -18 8v0q-7 0 -14 -5l-1 -1v0v0v0q-3 -4 -9 -4v0v0q-4 0 -8 3v0v0q-7 8 -17 8v0q-9 0 -15 -6h-1v-1q-4 -4 -9 -4v0v0q-5 0 -8 3v0v0q-7 8 -18 8v0q-8 0 -15 -6zM848 -8v0q-6 0 -10 4v1v0h-1q-5 7 -14 7v0v0q-7 0 -13 -5v-1h-1q-4 -6 -11 -6v0v0q-6 0 -11 4v1v0v0
q-6 7 -15 7v0q-7 0 -12 -5q-1 -1 -3 -1q-3 0 -3 3q0 2 1 3q7 7 17 7v0v0q12 0 20 -9q6 -6 12 1l1 1v0q8 7 18 7v0v0q12 0 20 -9q6 -6 11 1h1v0v0q0 1 1 1q7 6 16 6v0q12 0 20 -10q1 -1 1 -2q0 -3 -3 -3q-2 0 -3 1q-6 7 -15 7v0v0q-6 0 -11 -4l-1 -1v0v0q-5 -6 -12 -6z" />
    <glyph glyph-name="-quhaochenggong" unicode="&#xe61d;" horiz-adv-x="1208" 
d="M229 523q-28 -76 -28 -158q0 -120 56 -222.5t152 -166.5h519q49 32 87 75l16 -16q16 -16 39.5 -16t40 16t16.5 39.5t-17 39.5l-16 17l-13 13l-44 44q-7 7 -7 16.5t7 16.5t17 7t17 -7l32 -32l24 -24l14 -14q11 -11 27.5 -11t28 11.5t11.5 28t-12 27.5l-68 68q9 45 9 90v0
q0 95 -37 181.5t-100 149.5t-149.5 100t-181.5 37q-101 0 -192 -41l-54 53q-10 11 -20.5 0.5t-0.5 -21.5l9 -8l38 -38l1 -1q9 -9 9 -23t-9.5 -23.5t-23 -9.5t-23.5 10l-11 11l-27 27l-25 25q-11 11 -26 11t-26 -11t-11 -26.5t11 -25.5l48 -48l5 -6q13 -12 13 -30t-13 -31
q-12 -12 -29.5 -12.5t-30.5 11.5l-41 42q-16 16 -39 16t-39 -16t-16 -39t16 -39zM211 814l-22 22q-10 10 -10 24.5t10 24.5t24.5 10t24.5 -10l22 -22q10 -10 10 -24.5t-10 -24.5t-24.5 -10t-24.5 10zM997 -29h-715q-5 0 -5 4.5t5 4.5h715q5 0 5 -4.5t-5 -4.5zM1072 -29h-43
q-4 0 -4 4.5t4 4.5h43q4 0 4 -4.5t-4 -4.5zM584 -71h-152q-4 0 -4 4t4 4h152q4 0 4 -4t-4 -4zM622 -71h-9q-4 0 -4 4t4 4h9q4 0 4 -4t-4 -4zM810 -71h-160q-4 0 -4 4t4 4h160q4 0 4 -4t-4 -4zM924 -127h-369q-4 0 -4 4t4 4h369q4 0 4 -4t-4 -4zM379 487h68q4 16 20 16
t20 -16h50q4 16 20 16t21 -16h52q4 16 20 16t20 -16h49q5 16 20.5 16t20.5 -16h70q17 0 29 -12t12 -29v-429q0 -17 -12 -29t-29 -12h-451q-17 0 -29 12t-12 29v429q0 17 12 29t29 12zM830 -28h-451q-19 0 -32 13t-13 32v429q0 19 13 32t32 13h65q7 15 23.5 15t22.5 -15h45
q6 15 22.5 15t22.5 -15h47q6 15 22.5 15t23.5 -15h44q6 15 22.5 15t22.5 -15h68q18 0 31 -13t13 -32v-429q0 -19 -13 -32t-31 -13zM379 484q-16 0 -27 -11t-11 -27v-429q0 -16 11 -27t27 -11h451q15 0 26 11t11 27v429q0 16 -11 27t-26 11h-73l-1 2q-3 13 -16.5 13
t-16.5 -13l-1 -2h-55v2q-4 13 -17 13t-17 -13l-1 -2h-57l-1 2q-4 13 -17 13t-16 -13l-1 -2h-55l-1 2q-4 13 -17 13t-17 -13v-2h-71zM719 475q0 -9 6 -15.5t14.5 -6.5t14.5 6.5t6 15.5v30q0 8 -6 14.5t-14.5 6.5t-14.5 -6.5t-6 -14.5v-30zM739.5 450q-10.5 0 -17.5 7t-7 18
v30q0 10 7 17t17.5 7t17.5 -7t7 -17v-30q0 -11 -7 -18t-17.5 -7zM739.5 522q-7.5 0 -12.5 -5t-5 -12v-30q0 -8 5 -13t12.5 -5t12.5 5t5 13v30q0 7 -5 12t-12.5 5zM629 475q0 -9 6 -15.5t15 -6.5t15 6.5t6 15.5v30q0 8 -6 14.5t-15 6.5t-15 -6.5t-6 -14.5v-30zM650 450
q-10 0 -17.5 7t-7.5 18v30q0 10 7.5 17t17.5 7t17 -7t7 -17v-30q0 -11 -7 -18t-17 -7zM650 522q-7 0 -12.5 -5t-5.5 -12v-30q0 -8 5.5 -13t12.5 -5t12 5t5 13v30q0 7 -5 12t-12 5zM536 475q0 -9 6.5 -15.5t15 -6.5t14.5 6.5t6 15.5v30q0 8 -6 14.5t-14.5 6.5t-15 -6.5
t-6.5 -14.5v-30zM557.5 450q-10.5 0 -17.5 7t-7 18v30q0 10 7 17t17.5 7t17.5 -7t7 -17v-30q0 -11 -7 -18t-17.5 -7zM557.5 522q-7.5 0 -12.5 -5t-5 -12v-30q0 -8 5 -13t12.5 -5t12.5 5t5 13v30q0 7 -5 12t-12.5 5zM446 475q0 -9 6 -15.5t15 -6.5t15 6.5t6 15.5v30
q0 8 -6 14.5t-15 6.5t-15 -6.5t-6 -14.5v-30zM467 450q-10 0 -17 7t-7 18v30q0 10 7 17t17 7t17.5 -7t7.5 -17v-30q0 -11 -7.5 -18t-17.5 -7zM467 522q-7 0 -12 -5t-5 -12v-30q0 -8 5 -13t12 -5t12.5 5t5.5 13v30q0 7 -5.5 12t-12.5 5zM871 428v18q0 17 -12 29t-29 12h-37z
M874 428h-7v18q0 16 -11 27t-26 11h-37v7h37q18 0 31 -13t13 -32v-18zM412 487h-33q-17 0 -29 -12t-12 -29v-429q0 -17 12 -29t29 -12h451q17 0 29 12t12 29v380h-496zM830 -28h-451q-19 0 -32 13t-13 32v429q0 19 13 32t32 13h33v-7h-33q-16 0 -27 -11t-11 -27v-429
q0 -16 11 -27t27 -11h451q15 0 26 11t11 27v376h-492v8h499v-384q0 -19 -13 -32t-31 -13zM430 10l-55 60v286h457v-315q0 -13 -9 -22t-22 -9h-334v46q0 12 -9 21t-21 9h-30zM801 6h-337v50q0 11 -8 19t-19 8h-30v7h30q14 0 24 -10t10 -24v-43h330q11 0 19 8t8 20v311h-450
v-280l54 -60l-5 -5l-56 62v291h464v-319q0 -15 -10 -25t-24 -10zM727 284q-2 0 -3 -1q-115 -51 -160 -121l-50 51q-2 2 -5.5 2t-5.5 -2l-29 -29q-2 -3 -2 -6v0q0 -3 2 -6l86 -81q3 -2 6 -2q4 0 6 4q28 39 54.5 69.5t43 45.5t31 24.5t19.5 11t7 1.5q7 1 7 8v23q0 5 -3 7
q-2 1 -4 1v0zM727 284q2 0 4 -1q4 -2 4 -7v0v-23q0 -7 -7 -8q-3 0 -8 -1.5t-19.5 -11t-31 -24.5t-43 -45.5t-54.5 -69.5q-2 -4 -6 -4q-3 0 -6 2l-86 81q-2 3 -2 6v0q0 3 2 6l29 29q2 2 5.5 2t5.5 -2l50 -51q45 70 160 121q1 1 3 1v0zM727 291q-3 0 -6 -1q-109 -48 -158 -117
l-44 45q-4 4 -11 4v0v0q-6 0 -10 -4l-29 -29q-4 -5 -4 -11v0q0 -7 4 -11l87 -81q4 -4 10 -4h1q7 1 11 6q27 38 52 67.5t41 44t30.5 24t19.5 12t8 2.5q13 2 13 15v23v0q0 9 -7 13q-4 2 -8 2v0zM879 134zM734 134q0 -60 42.5 -103t103 -43t103 43t42.5 103t-42.5 103t-103 43
t-103 -43t-42.5 -103zM879.5 -15q-61.5 0 -105.5 43.5t-44 105.5t44 105.5t105.5 43.5t105.5 -43.5t44 -105.5t-44 -105.5t-105.5 -43.5zM879.5 276q-58.5 0 -100.5 -41.5t-42 -100.5t42 -100.5t100.5 -41.5t100 41.5t41.5 100.5t-41.5 100.5t-100 41.5zM879 134zM765 134
q0 -47 33.5 -80.5t81 -33.5t80.5 33.5t33 80.5t-33 80.5t-80.5 33.5t-81 -33.5t-33.5 -80.5zM879.5 16q-48.5 0 -83 34.5t-34.5 83t34.5 83t83 34.5t83 -34.5t34.5 -83t-34.5 -83t-83 -34.5zM879.5 244q-45.5 0 -78 -32.5t-32.5 -78t32.5 -78t78 -32.5t78 32.5t32.5 78
t-32.5 78t-78 32.5zM846 97l-5 5l35 35v50h7v-53zM876 231h7v-18h-7v18zM876 55h7v-17h-7v17zM959 138h17v-8h-17v8zM783 138h18v-8h-18v8zM814 205l12 -13l-5 -5l-12 13zM938 81l12 -13l-5 -5l-12 13zM945 205l6 -5l-13 -13l-5 5zM821 81l5 -5l-12 -13l-5 5zM133 597v0
q-4 0 -4 4t4 4v0q5 0 5 -4t-5 -4zM446 564v0q-14 0 -24 10t-10 24t10 24t24 10v0q14 0 24 -10t10 -24v0q0 -14 -10 -24t-24 -10v0zM446 624v0q-11 0 -18.5 -7.5t-7.5 -18.5t7.5 -18.5t18.5 -7.5t18.5 7.5t7.5 18.5t-7.5 18.5t-18.5 7.5v0zM76 534v0q-11 0 -18.5 8t-7.5 19v0
q0 11 7.5 18.5t18.5 7.5t19 -7.5t8 -18.5v0q0 -11 -8 -19t-19 -8v0zM76 579q-7 0 -12.5 -5.5t-5.5 -13t5.5 -12.5t13 -5t12.5 5t5 12.5t-5 13t-13 5.5v0zM1150 535v0q-11 0 -18.5 7.5t-7.5 18.5v0q0 10 7.5 18t18 8t18 -7.5t7.5 -18.5v0v0q0 -11 -7.5 -18.5t-17.5 -7.5v0z
M1150 578q-8 0 -13 -5t-5 -12v0q0 -7 5 -12.5t12.5 -5.5t12.5 5.5t5 12.5t-5 12t-12 5v0zM673 641h-32q-4 0 -4 4t4 4h32q5 0 5 -4t-5 -4zM657 624v0q-4 0 -4 5v32q0 4 4 4t4 -4v-32v0q0 -5 -4 -5zM37 387h-12v12q0 5 -4 5t-4 -5v-12h-12q-5 0 -5 -4t5 -4h12v-12q0 -5 4 -5
t4 5v12h12v0q4 0 4 4t-4 4z" />
    <glyph glyph-name="-biyan" unicode="&#xe61e;" horiz-adv-x="1686" 
d="M843.5 54q-18.5 0 -32 13.5t-13.5 32.5v246q0 19 13.5 32.5t32 13.5t32 -13.5t13.5 -32.5v-246q0 -19 -13.5 -32.5t-32 -13.5zM389 156q-19 0 -32.5 13.5t-13.5 32.5q0 12 7 22l123 214q5 9 16.5 15.5t22.5 6.5q19 0 32 -13t13 -32q0 -12 -6 -22l-123 -214
q-6 -9 -17.5 -16t-21.5 -7v0zM86 420v0q-19 0 -32.5 13t-13.5 32q0 11 7 22.5t16 16.5l214 124q10 6 22 6q19 0 32.5 -13.5t13.5 -32.5q0 -10 -7 -21.5t-16 -17.5l-214 -123q-10 -6 -22 -6zM1281 156v0q-11 0 -22.5 7t-16.5 16l-124 214q-6 10 -6 23q0 18 13.5 31.5
t31.5 13.5q11 0 22.5 -7t17.5 -16l123 -214q6 -10 6 -22q0 -19 -13 -32.5t-32 -13.5zM1601 420q-12 0 -23 6l-213 123q-10 6 -16.5 17.5t-6.5 22.5q0 18 13 31.5t32 13.5q12 0 23 -6l213 -124q10 -5 16.5 -16.5t6.5 -22.5q0 -19 -13 -32t-32 -13v0zM844 301h-1
q-112 0 -238 46t-234.5 124.5t-170.5 171.5q-8 11 -8 25q0 19 13.5 32t31.5 13q10 0 21 -5.5t16 -13.5q85 -125 251.5 -213.5t317.5 -88.5h1v0q151 0 317.5 88.5t251.5 213.5q5 8 16 14t21 6q19 0 32 -13.5t13 -32.5q0 -13 -7 -25q-63 -93 -171.5 -171.5t-234.5 -124.5
t-238 -46v0z" />
    <glyph glyph-name="xinwen1" unicode="&#xe61f;" 
d="M903 813h-615q-27 0 -46 -19t-19 -46v-732q0 -10 4 -22h-48q-9 0 -15.5 6.5t-6.5 15.5v627q0 9 6.5 15t15.5 6v43q-27 0 -46 -18.5t-19 -45.5v-627q0 -27 19 -46t46 -19l724 1q26 0 45 18.5t19 45.5v732q0 27 -19 46t-45 19zM924 16q0 -9 -6 -15t-15 -6h-615
q-9 0 -15.5 6t-6.5 15v732q0 9 6.5 15.5t15.5 6.5h615q9 0 15 -6.5t6 -15.5v-732zM809 283h-427q-6 0 -10.5 -4.5t-4.5 -10.5v-9q0 -7 4.5 -11.5t10.5 -4.5h427q6 0 10 4.5t4 11.5v9q0 6 -4 10.5t-10 4.5zM809 173h-427q-6 0 -10.5 -4.5t-4.5 -11.5v-9q0 -6 4.5 -10.5
t10.5 -4.5h427q6 0 10 4.5t4 10.5v9q0 7 -4 11.5t-10 4.5zM411 347h175q18 0 31 13t13 31v177q0 18 -13 31t-31 13h-175q-18 0 -31 -13t-13 -31v-177q0 -18 13 -31t31 -13zM411 568h175v-177h-175v177zM679 562h125q8 0 13.5 5.5t5.5 13.5t-5.5 13.5t-13.5 5.5h-125
q-8 0 -13.5 -5.5t-5.5 -13.5t5.5 -13.5t13.5 -5.5zM679 455h125q8 0 13.5 5.5t5.5 13.5t-5.5 13.5t-13.5 5.5h-125q-8 0 -13.5 -5.5t-5.5 -13.5t5.5 -13.5t13.5 -5.5zM679 349h125q8 0 13.5 5.5t5.5 13.5t-5.5 13.5t-13.5 5.5h-125q-8 0 -13.5 -5.5t-5.5 -13.5t5.5 -13.5
t13.5 -5.5z" />
  </font>
</defs>
</svg>
